<svg width="827" height="228" viewBox="0 0 827 228" fill="none" xmlns="http://www.w3.org/2000/svg">
<path d="M31.32 44L24.75 33.695C28.395 31.805 30.375 28.295 30.375 23.525C30.375 16.505 25.605 12.455 17.235 12.455H3.06V44H11.295V35.27H17.235H17.415L22.005 44H31.32ZM11.295 19.025H17.28C20.61 19.025 22.545 20.69 22.545 23.795C22.545 26.99 20.61 28.7 17.28 28.7H11.295V19.025ZM58.7985 44H67.5735L54.3435 12.455H45.8835L32.3385 44H40.7985L43.0035 38.42H56.6385L58.7985 44ZM45.4785 32.12L49.8885 20.87L54.2085 32.12H45.4785ZM70.4282 12.455V44H78.6632V12.455H70.4282ZM106.533 22.175L109.638 15.65C106.353 13.535 101.673 12.095 97.0383 12.095C89.4333 12.095 84.4383 15.83 84.4383 21.725C84.4383 32.885 101.043 29.645 101.043 35C101.043 36.665 99.5133 37.565 97.0833 37.565C93.7983 37.565 88.8933 35.585 85.6533 32.795L82.4583 39.23C86.2383 42.335 91.7283 44.27 96.9933 44.27C104.013 44.27 109.683 40.985 109.683 34.55C109.683 23.21 93.0783 26.18 93.0783 20.96C93.0783 19.52 94.3833 18.8 96.3633 18.8C98.9733 18.8 103.203 20.285 106.533 22.175ZM113.89 12.455V44H139.225V37.43H122.125V31.49L137.155 31.445V24.92H122.125V19.025H138.775V12.455H113.89ZM157.846 12.455H144.256V44H157.531C167.746 44 174.631 37.61 174.631 28.205C174.631 18.845 167.836 12.455 157.846 12.455ZM158.071 37.34H152.491V19.16H157.666C162.661 19.16 166.216 22.85 166.216 28.295C166.216 33.695 162.841 37.34 158.071 37.34ZM192.201 12.455V44H200.436V32.615H214.566V26.045H200.436V19.025H215.736L215.781 12.455H192.201ZM234.565 12.23C224.8 12.23 217.51 19.025 217.51 28.205C217.51 37.43 224.8 44.36 234.565 44.36C244.33 44.36 251.62 37.43 251.62 28.205C251.62 19.07 244.33 12.23 234.565 12.23ZM234.655 19.25C239.38 19.25 243.16 23.12 243.16 28.25C243.16 33.38 239.38 37.34 234.655 37.34C229.975 37.34 225.97 33.38 225.97 28.25C225.97 23.12 229.93 19.25 234.655 19.25ZM283.962 44L277.392 33.695C281.037 31.805 283.017 28.295 283.017 23.525C283.017 16.505 278.247 12.455 269.877 12.455H255.702V44H263.937V35.27H269.877H270.057L274.647 44H283.962ZM263.937 19.025H269.922C273.252 19.025 275.187 20.69 275.187 23.795C275.187 26.99 273.252 28.7 269.922 28.7H263.937V19.025ZM324.571 23.345L329.341 17.63C326.191 14.3 321.286 12.23 316.606 12.23C306.976 12.23 299.731 19.07 299.731 28.16C299.731 37.43 306.796 44.36 316.291 44.36C320.971 44.36 326.011 42.065 329.386 38.51L324.571 33.335C322.366 35.585 319.351 37.025 316.741 37.025C311.881 37.025 308.191 33.155 308.191 28.07C308.191 23.03 311.881 19.205 316.741 19.205C319.486 19.205 322.501 20.825 324.571 23.345ZM332.914 12.455V44H341.149V31.895H353.884V44H362.119V12.455H353.884V25.325H341.149V12.455H332.914ZM391.421 44H400.196L386.966 12.455H378.506L364.961 44H373.421L375.626 38.42H389.261L391.421 44ZM378.101 32.12L382.511 20.87L386.831 32.12H378.101ZM431.31 44L424.74 33.695C428.385 31.805 430.365 28.295 430.365 23.525C430.365 16.505 425.595 12.455 417.225 12.455H403.05V44H411.285V35.27H417.225H417.405L421.995 44H431.31ZM411.285 19.025H417.27C420.6 19.025 422.535 20.69 422.535 23.795C422.535 26.99 420.6 28.7 417.27 28.7H411.285V19.025ZM435.614 12.455V44H443.849V12.455H435.614ZM447.239 12.455V19.25H456.599V44H464.834V19.25H474.284V12.455H447.239ZM505.57 12.455H497.335L490.045 26L482.575 12.455H474.34L485.95 34.145V44H494.185V33.92L505.57 12.455Z" fill="#FFDD00"/>
<rect x="2" y="54" width="825" height="4" rx="2" fill="#FFDD00"/>
<path d="M10.3989 227.406C6.06821 227.406 2.55115 223.897 2.55115 219.575V105.381C2.55115 101.059 6.06821 97.5498 10.3989 97.5498H90.4253C94.756 97.5498 98.2731 101.059 98.2731 105.381V219.575C98.2731 223.897 94.756 227.406 90.4253 227.406H10.3989V227.406Z" fill="#32023A"/>
<path d="M93.6011 180.969H96.0158V219.575C96.0158 222.666 93.4961 225.154 90.4252 225.154H10.3989C7.30179 225.154 4.80835 222.639 4.80835 219.575V180.969H7.22305C10.3202 180.969 12.8136 178.455 12.8136 175.39V164.154H87.9843V175.39C87.9843 178.481 90.504 180.969 93.6011 180.969ZM90.4252 99.8022H10.3989C7.30179 99.8022 4.80835 102.317 4.80835 105.381V143.987H7.22305C10.3202 143.987 12.8136 146.501 12.8136 149.566V160.802H87.9843V149.566C87.9843 146.475 90.504 143.987 93.5749 143.987H95.9896V105.381C96.0158 102.29 93.5224 99.8022 90.4252 99.8022Z" fill="url(#paint0_linear_412_124)"/>
<path d="M10.399 224.054C7.93177 224.054 5.91077 222.037 5.91077 219.575V182.096H7.2231C10.9239 182.096 13.9423 179.084 13.9423 175.391V165.281H86.882V175.391C86.882 179.084 89.9004 182.096 93.6012 182.096H94.9135V219.575C94.9135 222.037 92.8925 224.054 90.4253 224.054H10.399Z" fill="url(#paint1_linear_412_124)"/>
<path d="M13.9423 159.676H86.882V149.566C86.882 145.873 89.9004 142.861 93.6012 142.861H94.9135V105.381C94.9135 102.919 92.8925 100.902 90.4253 100.902H10.399C7.93177 100.902 5.91077 102.919 5.91077 105.381V142.861H7.2231C10.9239 142.861 13.9423 145.873 13.9423 149.566V159.676V159.676Z" fill="url(#paint2_linear_412_124)"/>
<path d="M96.0159 145.113H93.6012C91.134 145.113 89.113 147.104 89.113 149.592V175.417C89.113 177.879 91.1078 179.895 93.6012 179.895H96.0159V145.113Z" fill="#32023A"/>
<path d="M4.80835 145.113H7.22305C9.69025 145.113 11.7112 147.104 11.7112 149.592V175.417C11.7112 177.879 9.71649 179.895 7.22305 179.895H4.80835V145.113Z" fill="#32023A"/>
<path d="M114.848 227.406C110.517 227.406 107 223.897 107 219.575V105.381C107 101.059 110.517 97.5498 114.848 97.5498H194.874C199.205 97.5498 202.722 101.059 202.722 105.381V219.575C202.722 223.897 199.205 227.406 194.874 227.406H114.848V227.406Z" fill="#32023A"/>
<path d="M198.05 180.969H200.465V219.575C200.465 222.666 197.945 225.154 194.874 225.154H114.848C111.751 225.154 109.257 222.639 109.257 219.575V180.969H111.672C114.769 180.969 117.262 178.455 117.262 175.39V164.154H192.433V175.39C192.433 178.481 194.953 180.969 198.05 180.969ZM194.874 99.8022H114.848C111.751 99.8022 109.257 102.317 109.257 105.381V143.987H111.672C114.769 143.987 117.262 146.501 117.262 149.566V160.802H192.433V149.566C192.433 146.475 194.953 143.987 198.024 143.987H200.438V105.381C200.465 102.29 197.971 99.8022 194.874 99.8022Z" fill="url(#paint3_linear_412_124)"/>
<path d="M114.848 224.054C112.381 224.054 110.36 222.037 110.36 219.575V182.096H111.672C115.373 182.096 118.391 179.084 118.391 175.391V165.281H191.331V175.391C191.331 179.084 194.349 182.096 198.05 182.096H199.362V219.575C199.362 222.037 197.341 224.054 194.874 224.054H114.848Z" fill="url(#paint4_linear_412_124)"/>
<path d="M118.391 159.676H191.331V149.566C191.331 145.873 194.349 142.861 198.05 142.861H199.362V105.381C199.362 102.919 197.341 100.902 194.874 100.902H114.848C112.381 100.902 110.36 102.919 110.36 105.381V142.861H111.672C115.373 142.861 118.391 145.873 118.391 149.566V159.676V159.676Z" fill="url(#paint5_linear_412_124)"/>
<path d="M200.465 145.113H198.05C195.583 145.113 193.562 147.104 193.562 149.592V175.417C193.562 177.879 195.557 179.895 198.05 179.895H200.465V145.113Z" fill="#32023A"/>
<path d="M109.257 145.113H111.672C114.139 145.113 116.16 147.104 116.16 149.592V175.417C116.16 177.879 114.165 179.895 111.672 179.895H109.257V145.113Z" fill="#32023A"/>
<path d="M218.848 227.406C214.517 227.406 211 223.897 211 219.575V105.381C211 101.059 214.517 97.5498 218.848 97.5498H298.874C303.205 97.5498 306.722 101.059 306.722 105.381V219.575C306.722 223.897 303.205 227.406 298.874 227.406H218.848V227.406Z" fill="#32023A"/>
<path d="M302.05 180.969H304.465V219.575C304.465 222.666 301.945 225.154 298.874 225.154H218.848C215.751 225.154 213.257 222.639 213.257 219.575V180.969H215.672C218.769 180.969 221.262 178.455 221.262 175.39V164.154H296.433V175.39C296.433 178.481 298.953 180.969 302.05 180.969ZM298.874 99.8022H218.848C215.751 99.8022 213.257 102.317 213.257 105.381V143.987H215.672C218.769 143.987 221.262 146.501 221.262 149.566V160.802H296.433V149.566C296.433 146.475 298.953 143.987 302.024 143.987H304.438V105.381C304.465 102.29 301.971 99.8022 298.874 99.8022Z" fill="url(#paint6_linear_412_124)"/>
<path d="M218.848 224.054C216.381 224.054 214.36 222.037 214.36 219.575V182.096H215.672C219.373 182.096 222.391 179.084 222.391 175.391V165.281H295.331V175.391C295.331 179.084 298.349 182.096 302.05 182.096H303.362V219.575C303.362 222.037 301.341 224.054 298.874 224.054H218.848Z" fill="url(#paint7_linear_412_124)"/>
<path d="M222.391 159.676H295.331V149.566C295.331 145.873 298.349 142.861 302.05 142.861H303.362V105.381C303.362 102.919 301.341 100.902 298.874 100.902H218.848C216.381 100.902 214.36 102.919 214.36 105.381V142.861H215.672C219.373 142.861 222.391 145.873 222.391 149.566V159.676V159.676Z" fill="url(#paint8_linear_412_124)"/>
<path d="M304.465 145.113H302.05C299.583 145.113 297.562 147.104 297.562 149.592V175.417C297.562 177.879 299.557 179.895 302.05 179.895H304.465V145.113Z" fill="#32023A"/>
<path d="M213.257 145.113H215.672C218.139 145.113 220.16 147.104 220.16 149.592V175.417C220.16 177.879 218.165 179.895 215.672 179.895H213.257V145.113Z" fill="#32023A"/>
<path d="M322.848 227.406C318.517 227.406 315 223.897 315 219.575V105.381C315 101.059 318.517 97.5498 322.848 97.5498H402.874C407.205 97.5498 410.722 101.059 410.722 105.381V219.575C410.722 223.897 407.205 227.406 402.874 227.406H322.848V227.406Z" fill="#32023A"/>
<path d="M406.05 180.969H408.465V219.575C408.465 222.666 405.945 225.154 402.874 225.154H322.848C319.751 225.154 317.257 222.639 317.257 219.575V180.969H319.672C322.769 180.969 325.262 178.455 325.262 175.39V164.154H400.433V175.39C400.433 178.481 402.953 180.969 406.05 180.969ZM402.874 99.8022H322.848C319.751 99.8022 317.257 102.317 317.257 105.381V143.987H319.672C322.769 143.987 325.262 146.501 325.262 149.566V160.802H400.433V149.566C400.433 146.475 402.953 143.987 406.024 143.987H408.438V105.381C408.465 102.29 405.971 99.8022 402.874 99.8022Z" fill="url(#paint9_linear_412_124)"/>
<path d="M322.848 224.054C320.381 224.054 318.36 222.037 318.36 219.575V182.096H319.672C323.373 182.096 326.391 179.084 326.391 175.391V165.281H399.331V175.391C399.331 179.084 402.349 182.096 406.05 182.096H407.362V219.575C407.362 222.037 405.341 224.054 402.874 224.054H322.848Z" fill="url(#paint10_linear_412_124)"/>
<path d="M326.391 159.676H399.331V149.566C399.331 145.873 402.349 142.861 406.05 142.861H407.362V105.381C407.362 102.919 405.341 100.902 402.874 100.902H322.848C320.381 100.902 318.36 102.919 318.36 105.381V142.861H319.672C323.373 142.861 326.391 145.873 326.391 149.566V159.676V159.676Z" fill="url(#paint11_linear_412_124)"/>
<path d="M408.465 145.113H406.05C403.583 145.113 401.562 147.104 401.562 149.592V175.417C401.562 177.879 403.557 179.895 406.05 179.895H408.465V145.113Z" fill="#32023A"/>
<path d="M317.257 145.113H319.672C322.139 145.113 324.16 147.104 324.16 149.592V175.417C324.16 177.879 322.165 179.895 319.672 179.895H317.257V145.113Z" fill="#32023A"/>
<path d="M425.848 227.406C421.517 227.406 418 223.897 418 219.575V105.381C418 101.059 421.517 97.5498 425.848 97.5498H505.874C510.205 97.5498 513.722 101.059 513.722 105.381V219.575C513.722 223.897 510.205 227.406 505.874 227.406H425.848V227.406Z" fill="#32023A"/>
<path d="M509.05 180.969H511.465V219.575C511.465 222.666 508.945 225.154 505.874 225.154H425.848C422.751 225.154 420.257 222.639 420.257 219.575V180.969H422.672C425.769 180.969 428.262 178.455 428.262 175.39V164.154H503.433V175.39C503.433 178.481 505.953 180.969 509.05 180.969ZM505.874 99.8022H425.848C422.751 99.8022 420.257 102.317 420.257 105.381V143.987H422.672C425.769 143.987 428.262 146.501 428.262 149.566V160.802H503.433V149.566C503.433 146.475 505.953 143.987 509.024 143.987H511.438V105.381C511.465 102.29 508.971 99.8022 505.874 99.8022Z" fill="url(#paint12_linear_412_124)"/>
<path d="M425.848 224.054C423.381 224.054 421.36 222.037 421.36 219.575V182.096H422.672C426.373 182.096 429.391 179.084 429.391 175.391V165.281H502.331V175.391C502.331 179.084 505.349 182.096 509.05 182.096H510.362V219.575C510.362 222.037 508.341 224.054 505.874 224.054H425.848Z" fill="url(#paint13_linear_412_124)"/>
<path d="M429.391 159.676H502.331V149.566C502.331 145.873 505.349 142.861 509.05 142.861H510.362V105.381C510.362 102.919 508.341 100.902 505.874 100.902H425.848C423.381 100.902 421.36 102.919 421.36 105.381V142.861H422.672C426.373 142.861 429.391 145.873 429.391 149.566V159.676V159.676Z" fill="url(#paint14_linear_412_124)"/>
<path d="M511.465 145.113H509.05C506.583 145.113 504.562 147.104 504.562 149.592V175.417C504.562 177.879 506.557 179.895 509.05 179.895H511.465V145.113Z" fill="#32023A"/>
<path d="M420.257 145.113H422.672C425.139 145.113 427.16 147.104 427.16 149.592V175.417C427.16 177.879 425.165 179.895 422.672 179.895H420.257V145.113Z" fill="#32023A"/>
<path d="M528.848 227.406C524.517 227.406 521 223.897 521 219.575V105.381C521 101.059 524.517 97.5498 528.848 97.5498H608.874C613.205 97.5498 616.722 101.059 616.722 105.381V219.575C616.722 223.897 613.205 227.406 608.874 227.406H528.848V227.406Z" fill="#32023A"/>
<path d="M612.05 180.969H614.465V219.575C614.465 222.666 611.945 225.154 608.874 225.154H528.848C525.751 225.154 523.257 222.639 523.257 219.575V180.969H525.672C528.769 180.969 531.262 178.455 531.262 175.39V164.154H606.433V175.39C606.433 178.481 608.953 180.969 612.05 180.969ZM608.874 99.8022H528.848C525.751 99.8022 523.257 102.317 523.257 105.381V143.987H525.672C528.769 143.987 531.262 146.501 531.262 149.566V160.802H606.433V149.566C606.433 146.475 608.953 143.987 612.024 143.987H614.438V105.381C614.465 102.29 611.971 99.8022 608.874 99.8022Z" fill="url(#paint15_linear_412_124)"/>
<path d="M528.848 224.054C526.381 224.054 524.36 222.037 524.36 219.575V182.096H525.672C529.373 182.096 532.391 179.084 532.391 175.391V165.281H605.331V175.391C605.331 179.084 608.349 182.096 612.05 182.096H613.362V219.575C613.362 222.037 611.341 224.054 608.874 224.054H528.848Z" fill="url(#paint16_linear_412_124)"/>
<path d="M532.391 159.676H605.331V149.566C605.331 145.873 608.349 142.861 612.05 142.861H613.362V105.381C613.362 102.919 611.341 100.902 608.874 100.902H528.848C526.381 100.902 524.36 102.919 524.36 105.381V142.861H525.672C529.373 142.861 532.391 145.873 532.391 149.566V159.676V159.676Z" fill="url(#paint17_linear_412_124)"/>
<path d="M614.465 145.113H612.05C609.583 145.113 607.562 147.104 607.562 149.592V175.417C607.562 177.879 609.557 179.895 612.05 179.895H614.465V145.113Z" fill="#32023A"/>
<path d="M523.257 145.113H525.672C528.139 145.113 530.16 147.104 530.16 149.592V175.417C530.16 177.879 528.165 179.895 525.672 179.895H523.257V145.113Z" fill="#32023A"/>
<path d="M633.848 227.406C629.517 227.406 626 223.897 626 219.575V105.381C626 101.059 629.517 97.5498 633.848 97.5498H713.874C718.205 97.5498 721.722 101.059 721.722 105.381V219.575C721.722 223.897 718.205 227.406 713.874 227.406H633.848V227.406Z" fill="#32023A"/>
<path d="M717.05 180.969H719.465V219.575C719.465 222.666 716.945 225.154 713.874 225.154H633.848C630.751 225.154 628.257 222.639 628.257 219.575V180.969H630.672C633.769 180.969 636.262 178.455 636.262 175.39V164.154H711.433V175.39C711.433 178.481 713.953 180.969 717.05 180.969ZM713.874 99.8022H633.848C630.751 99.8022 628.257 102.317 628.257 105.381V143.987H630.672C633.769 143.987 636.262 146.501 636.262 149.566V160.802H711.433V149.566C711.433 146.475 713.953 143.987 717.024 143.987H719.438V105.381C719.465 102.29 716.971 99.8022 713.874 99.8022Z" fill="url(#paint18_linear_412_124)"/>
<path d="M633.848 224.054C631.381 224.054 629.36 222.037 629.36 219.575V182.096H630.672C634.373 182.096 637.391 179.084 637.391 175.391V165.281H710.331V175.391C710.331 179.084 713.349 182.096 717.05 182.096H718.362V219.575C718.362 222.037 716.341 224.054 713.874 224.054H633.848Z" fill="url(#paint19_linear_412_124)"/>
<path d="M637.391 159.676H710.331V149.566C710.331 145.873 713.349 142.861 717.05 142.861H718.362V105.381C718.362 102.919 716.341 100.902 713.874 100.902H633.848C631.381 100.902 629.36 102.919 629.36 105.381V142.861H630.672C634.373 142.861 637.391 145.873 637.391 149.566V159.676V159.676Z" fill="url(#paint20_linear_412_124)"/>
<path d="M719.465 145.113H717.05C714.583 145.113 712.562 147.104 712.562 149.592V175.417C712.562 177.879 714.557 179.895 717.05 179.895H719.465V145.113Z" fill="#32023A"/>
<path d="M628.257 145.113H630.672C633.139 145.113 635.16 147.104 635.16 149.592V175.417C635.16 177.879 633.165 179.895 630.672 179.895H628.257V145.113Z" fill="#32023A"/>
<path d="M738.848 227.406C734.517 227.406 731 223.897 731 219.575V105.381C731 101.059 734.517 97.5498 738.848 97.5498H818.874C823.205 97.5498 826.722 101.059 826.722 105.381V219.575C826.722 223.897 823.205 227.406 818.874 227.406H738.848V227.406Z" fill="#32023A"/>
<path d="M822.05 180.969H824.465V219.575C824.465 222.666 821.945 225.154 818.874 225.154H738.848C735.751 225.154 733.257 222.639 733.257 219.575V180.969H735.672C738.769 180.969 741.263 178.455 741.263 175.39V164.154H816.433V175.39C816.433 178.481 818.953 180.969 822.05 180.969ZM818.874 99.8022H738.848C735.751 99.8022 733.257 102.317 733.257 105.381V143.987H735.672C738.769 143.987 741.263 146.501 741.263 149.566V160.802H816.433V149.566C816.433 146.475 818.953 143.987 822.024 143.987H824.438V105.381C824.465 102.29 821.971 99.8022 818.874 99.8022Z" fill="url(#paint21_linear_412_124)"/>
<path d="M738.848 224.054C736.381 224.054 734.36 222.037 734.36 219.575V182.096H735.672C739.373 182.096 742.391 179.084 742.391 175.391V165.281H815.331V175.391C815.331 179.084 818.349 182.096 822.05 182.096H823.362V219.575C823.362 222.037 821.341 224.054 818.874 224.054H738.848Z" fill="url(#paint22_linear_412_124)"/>
<path d="M742.391 159.676H815.331V149.566C815.331 145.873 818.349 142.861 822.05 142.861H823.362V105.381C823.362 102.919 821.341 100.902 818.874 100.902H738.848C736.381 100.902 734.36 102.919 734.36 105.381V142.861H735.672C739.373 142.861 742.391 145.873 742.391 149.566V159.676V159.676Z" fill="url(#paint23_linear_412_124)"/>
<path d="M824.465 145.113H822.05C819.583 145.113 817.562 147.104 817.562 149.592V175.417C817.562 177.879 819.557 179.895 822.05 179.895H824.465V145.113Z" fill="#32023A"/>
<path d="M733.257 145.113H735.672C738.139 145.113 740.16 147.104 740.16 149.592V175.417C740.16 177.879 738.165 179.895 735.672 179.895H733.257V145.113Z" fill="#32023A"/>
<mask id="mask0_412_124" style="mask-type:alpha" maskUnits="userSpaceOnUse" x="6" y="101" width="90" height="124">
<path fill-rule="evenodd" clip-rule="evenodd" d="M86.9712 159.773H14.0315V149.663C14.0315 145.97 11.0131 142.958 7.31234 142.958H6V105.479C6 103.017 8.021 101 10.4882 101H90.5145C92.9817 101 95.0027 103.017 95.0027 105.479V142.958H93.6904C89.9896 142.958 86.9712 145.97 86.9712 149.663V159.773ZM6 219.673C6 222.135 8.021 224.152 10.4882 224.152H90.5145C92.9817 224.152 95.0027 222.135 95.0027 219.673V182.193H93.6904C89.9896 182.193 86.9712 179.181 86.9712 175.488V165.378H14.0315V175.488C14.0315 179.181 11.0131 182.193 7.31234 182.193H6V219.673Z" fill="url(#paint24_linear_412_124)"/>
</mask>
<g mask="url(#mask0_412_124)">
<path d="M83.9184 198L69.3184 175.1C77.4184 170.9 81.8184 163.1 81.8184 152.5C81.8184 136.9 71.2184 127.9 52.6184 127.9H21.1184V198H39.4184V178.6H52.6184H53.0184L63.2184 198H83.9184ZM39.4184 142.5H52.7184C60.1184 142.5 64.4184 146.2 64.4184 153.1C64.4184 160.2 60.1184 164 52.7184 164H39.4184V142.5Z" fill="white"/>
</g>
<mask id="mask1_412_124" style="mask-type:alpha" maskUnits="userSpaceOnUse" x="214" y="100" width="90" height="124">
<path fill-rule="evenodd" clip-rule="evenodd" d="M294.971 158.773H222.032V148.663C222.032 144.97 219.013 141.958 215.312 141.958H214V104.479C214 102.017 216.021 100 218.488 100H298.515C300.982 100 303.003 102.017 303.003 104.479V141.958H301.69C297.99 141.958 294.971 144.97 294.971 148.663V158.773ZM214 218.673C214 221.135 216.021 223.152 218.488 223.152H298.515C300.982 223.152 303.003 221.135 303.003 218.673V181.193H301.69C297.99 181.193 294.971 178.181 294.971 174.488V164.378H222.032V174.488C222.032 178.181 219.013 181.193 215.312 181.193H214V218.673Z" fill="url(#paint25_linear_412_124)"/>
</mask>
<g mask="url(#mask1_412_124)">
<path d="M269.32 128V198H253.12V141H239.12V128H269.32Z" fill="white"/>
</g>
<mask id="mask2_412_124" style="mask-type:alpha" maskUnits="userSpaceOnUse" x="318" y="100" width="90" height="124">
<path fill-rule="evenodd" clip-rule="evenodd" d="M398.971 158.773H326.032V148.663C326.032 144.97 323.013 141.958 319.312 141.958H318V104.479C318 102.017 320.021 100 322.488 100H402.515C404.982 100 407.003 102.017 407.003 104.479V141.958H405.69C401.99 141.958 398.971 144.97 398.971 148.663V158.773ZM318 218.673C318 221.135 320.021 223.152 322.488 223.152H402.515C404.982 223.152 407.003 221.135 407.003 218.673V181.193H405.69C401.99 181.193 398.971 178.181 398.971 174.488V164.378H326.032V174.488C326.032 178.181 323.013 181.193 319.312 181.193H318V218.673Z" fill="url(#paint26_linear_412_124)"/>
</mask>
<g mask="url(#mask2_412_124)">
<path d="M362.041 127.4C344.241 127.4 334.541 140 334.541 162.9C334.541 185.8 344.241 198.5 362.041 198.5C379.641 198.5 389.441 185.8 389.441 162.9C389.441 140 379.641 127.4 362.041 127.4ZM362.041 140.2C369.041 140.2 371.941 146.8 371.941 162.9C371.941 178.9 369.041 185.6 362.041 185.6C354.941 185.6 352.041 178.9 352.041 162.9C352.041 146.8 354.941 140.2 362.041 140.2Z" fill="white"/>
</g>
<mask id="mask3_412_124" style="mask-type:alpha" maskUnits="userSpaceOnUse" x="422" y="100" width="90" height="124">
<path fill-rule="evenodd" clip-rule="evenodd" d="M502.971 158.773H430.032V148.663C430.032 144.97 427.013 141.958 423.312 141.958H422V104.479C422 102.017 424.021 100 426.488 100H506.515C508.982 100 511.003 102.017 511.003 104.479V141.958H509.69C505.99 141.958 502.971 144.97 502.971 148.663V158.773ZM422 218.673C422 221.135 424.021 223.152 426.488 223.152H506.515C508.982 223.152 511.003 221.135 511.003 218.673V181.193H509.69C505.99 181.193 502.971 178.181 502.971 174.488V164.378H430.032V174.488C430.032 178.181 427.013 181.193 423.312 181.193H422V218.673Z" fill="url(#paint27_linear_412_124)"/>
</mask>
<g mask="url(#mask3_412_124)">
<path d="M466.041 127.4C448.241 127.4 438.541 140 438.541 162.9C438.541 185.8 448.241 198.5 466.041 198.5C483.641 198.5 493.441 185.8 493.441 162.9C493.441 140 483.641 127.4 466.041 127.4ZM466.041 140.2C473.041 140.2 475.941 146.8 475.941 162.9C475.941 178.9 473.041 185.6 466.041 185.6C458.941 185.6 456.041 178.9 456.041 162.9C456.041 146.8 458.941 140.2 466.041 140.2Z" fill="white"/>
</g>
<mask id="mask4_412_124" style="mask-type:alpha" maskUnits="userSpaceOnUse" x="526" y="100" width="90" height="124">
<path fill-rule="evenodd" clip-rule="evenodd" d="M606.971 158.773H534.032V148.663C534.032 144.97 531.013 141.958 527.312 141.958H526V104.479C526 102.017 528.021 100 530.488 100H610.515C612.982 100 615.003 102.017 615.003 104.479V141.958H613.69C609.99 141.958 606.971 144.97 606.971 148.663V158.773ZM526 218.673C526 221.135 528.021 223.152 530.488 223.152H610.515C612.982 223.152 615.003 221.135 615.003 218.673V181.193H613.69C609.99 181.193 606.971 178.181 606.971 174.488V164.378H534.032V174.488C534.032 178.181 531.013 181.193 527.312 181.193H526V218.673Z" fill="url(#paint28_linear_412_124)"/>
</mask>
<g mask="url(#mask4_412_124)">
<path d="M542.841 127.8V152.4H559.041V142.6H578.641L553.041 198H572.341L598.741 140.5V127.8H542.841Z" fill="white"/>
</g>
<mask id="mask5_412_124" style="mask-type:alpha" maskUnits="userSpaceOnUse" x="629" y="100" width="90" height="124">
<path fill-rule="evenodd" clip-rule="evenodd" d="M709.971 158.773H637.032V148.663C637.032 144.97 634.013 141.958 630.312 141.958H629V104.479C629 102.017 631.021 100 633.488 100H713.515C715.982 100 718.003 102.017 718.003 104.479V141.958H716.69C712.99 141.958 709.971 144.97 709.971 148.663V158.773ZM629 218.673C629 221.135 631.021 223.152 633.488 223.152H713.515C715.982 223.152 718.003 221.135 718.003 218.673V181.193H716.69C712.99 181.193 709.971 178.181 709.971 174.488V164.378H637.032V174.488C637.032 178.181 634.013 181.193 630.312 181.193H629V218.673Z" fill="url(#paint29_linear_412_124)"/>
</mask>
<g mask="url(#mask5_412_124)">
<path d="M681.341 156.7L677.841 156.2L696.741 138.6V128H647.741L647.841 142.1H674.841L658.441 157.8V167.6H670.241C678.041 167.6 682.341 170.5 682.341 176.1C682.341 181.6 678.041 184.8 670.341 184.8C663.641 184.8 657.041 181.8 651.541 176.1L644.141 190.2C650.941 195.4 661.541 198.8 671.741 198.8C689.141 198.8 700.241 189.4 700.241 175.9C700.241 165.2 692.441 158.4 681.341 156.7Z" fill="white"/>
</g>
<mask id="mask6_412_124" style="mask-type:alpha" maskUnits="userSpaceOnUse" x="734" y="100" width="90" height="124">
<path fill-rule="evenodd" clip-rule="evenodd" d="M814.971 158.773H742.032V148.663C742.032 144.97 739.013 141.958 735.312 141.958H734V104.479C734 102.017 736.021 100 738.488 100H818.515C820.982 100 823.003 102.017 823.003 104.479V141.958H821.69C817.99 141.958 814.971 144.97 814.971 148.663V158.773ZM734 218.673C734 221.135 736.021 223.152 738.488 223.152H818.515C820.982 223.152 823.003 221.135 823.003 218.673V181.193H821.69C817.99 181.193 814.971 178.181 814.971 174.488V164.378H742.032V174.488C742.032 178.181 739.013 181.193 735.312 181.193H734V218.673Z" fill="url(#paint30_linear_412_124)"/>
</mask>
<g mask="url(#mask6_412_124)">
<path d="M777.141 159.7L751.641 185.9L751.741 198H805.141V183.3H775.141L789.541 168.9C797.341 161 803.141 153.1 803.141 145.5C803.141 134.4 792.841 127 778.641 127C768.441 127 758.641 131 749.641 137.6L756.541 151.1C763.041 145.6 770.241 142.2 775.941 142.2C781.041 142.2 783.941 144.4 783.941 148.2C783.941 151.2 781.041 155.7 777.141 159.7Z" fill="white"/>
</g>
<defs>
<linearGradient id="paint0_linear_412_124" x1="50.4121" y1="99.8022" x2="50.4121" y2="225.154" gradientUnits="userSpaceOnUse">
<stop stop-color="#5C006A"/>
<stop offset="1" stop-color="#44034F"/>
</linearGradient>
<linearGradient id="paint1_linear_412_124" x1="50.4121" y1="165.281" x2="50.4121" y2="224.054" gradientUnits="userSpaceOnUse">
<stop stop-color="#5C006A"/>
<stop offset="1" stop-color="#44034F"/>
</linearGradient>
<linearGradient id="paint2_linear_412_124" x1="50.4121" y1="100.902" x2="50.4121" y2="159.676" gradientUnits="userSpaceOnUse">
<stop stop-color="#5C006A"/>
<stop offset="1" stop-color="#44034F"/>
</linearGradient>
<linearGradient id="paint3_linear_412_124" x1="154.861" y1="99.8022" x2="154.861" y2="225.154" gradientUnits="userSpaceOnUse">
<stop stop-color="#5C006A"/>
<stop offset="1" stop-color="#44034F"/>
</linearGradient>
<linearGradient id="paint4_linear_412_124" x1="154.861" y1="165.281" x2="154.861" y2="224.054" gradientUnits="userSpaceOnUse">
<stop stop-color="#5C006A"/>
<stop offset="1" stop-color="#44034F"/>
</linearGradient>
<linearGradient id="paint5_linear_412_124" x1="154.861" y1="100.902" x2="154.861" y2="159.676" gradientUnits="userSpaceOnUse">
<stop stop-color="#5C006A"/>
<stop offset="1" stop-color="#44034F"/>
</linearGradient>
<linearGradient id="paint6_linear_412_124" x1="258.861" y1="99.8022" x2="258.861" y2="225.154" gradientUnits="userSpaceOnUse">
<stop stop-color="#5C006A"/>
<stop offset="1" stop-color="#44034F"/>
</linearGradient>
<linearGradient id="paint7_linear_412_124" x1="258.861" y1="165.281" x2="258.861" y2="224.054" gradientUnits="userSpaceOnUse">
<stop stop-color="#5C006A"/>
<stop offset="1" stop-color="#44034F"/>
</linearGradient>
<linearGradient id="paint8_linear_412_124" x1="258.861" y1="100.902" x2="258.861" y2="159.676" gradientUnits="userSpaceOnUse">
<stop stop-color="#5C006A"/>
<stop offset="1" stop-color="#44034F"/>
</linearGradient>
<linearGradient id="paint9_linear_412_124" x1="362.861" y1="99.8022" x2="362.861" y2="225.154" gradientUnits="userSpaceOnUse">
<stop stop-color="#5C006A"/>
<stop offset="1" stop-color="#44034F"/>
</linearGradient>
<linearGradient id="paint10_linear_412_124" x1="362.861" y1="165.281" x2="362.861" y2="224.054" gradientUnits="userSpaceOnUse">
<stop stop-color="#5C006A"/>
<stop offset="1" stop-color="#44034F"/>
</linearGradient>
<linearGradient id="paint11_linear_412_124" x1="362.861" y1="100.902" x2="362.861" y2="159.676" gradientUnits="userSpaceOnUse">
<stop stop-color="#5C006A"/>
<stop offset="1" stop-color="#44034F"/>
</linearGradient>
<linearGradient id="paint12_linear_412_124" x1="465.861" y1="99.8022" x2="465.861" y2="225.154" gradientUnits="userSpaceOnUse">
<stop stop-color="#5C006A"/>
<stop offset="1" stop-color="#44034F"/>
</linearGradient>
<linearGradient id="paint13_linear_412_124" x1="465.861" y1="165.281" x2="465.861" y2="224.054" gradientUnits="userSpaceOnUse">
<stop stop-color="#5C006A"/>
<stop offset="1" stop-color="#44034F"/>
</linearGradient>
<linearGradient id="paint14_linear_412_124" x1="465.861" y1="100.902" x2="465.861" y2="159.676" gradientUnits="userSpaceOnUse">
<stop stop-color="#5C006A"/>
<stop offset="1" stop-color="#44034F"/>
</linearGradient>
<linearGradient id="paint15_linear_412_124" x1="568.861" y1="99.8022" x2="568.861" y2="225.154" gradientUnits="userSpaceOnUse">
<stop stop-color="#5C006A"/>
<stop offset="1" stop-color="#44034F"/>
</linearGradient>
<linearGradient id="paint16_linear_412_124" x1="568.861" y1="165.281" x2="568.861" y2="224.054" gradientUnits="userSpaceOnUse">
<stop stop-color="#5C006A"/>
<stop offset="1" stop-color="#44034F"/>
</linearGradient>
<linearGradient id="paint17_linear_412_124" x1="568.861" y1="100.902" x2="568.861" y2="159.676" gradientUnits="userSpaceOnUse">
<stop stop-color="#5C006A"/>
<stop offset="1" stop-color="#44034F"/>
</linearGradient>
<linearGradient id="paint18_linear_412_124" x1="673.861" y1="99.8022" x2="673.861" y2="225.154" gradientUnits="userSpaceOnUse">
<stop stop-color="#5C006A"/>
<stop offset="1" stop-color="#44034F"/>
</linearGradient>
<linearGradient id="paint19_linear_412_124" x1="673.861" y1="165.281" x2="673.861" y2="224.054" gradientUnits="userSpaceOnUse">
<stop stop-color="#5C006A"/>
<stop offset="1" stop-color="#44034F"/>
</linearGradient>
<linearGradient id="paint20_linear_412_124" x1="673.861" y1="100.902" x2="673.861" y2="159.676" gradientUnits="userSpaceOnUse">
<stop stop-color="#5C006A"/>
<stop offset="1" stop-color="#44034F"/>
</linearGradient>
<linearGradient id="paint21_linear_412_124" x1="778.861" y1="99.8022" x2="778.861" y2="225.154" gradientUnits="userSpaceOnUse">
<stop stop-color="#5C006A"/>
<stop offset="1" stop-color="#44034F"/>
</linearGradient>
<linearGradient id="paint22_linear_412_124" x1="778.861" y1="165.281" x2="778.861" y2="224.054" gradientUnits="userSpaceOnUse">
<stop stop-color="#5C006A"/>
<stop offset="1" stop-color="#44034F"/>
</linearGradient>
<linearGradient id="paint23_linear_412_124" x1="778.861" y1="100.902" x2="778.861" y2="159.676" gradientUnits="userSpaceOnUse">
<stop stop-color="#5C006A"/>
<stop offset="1" stop-color="#44034F"/>
</linearGradient>
<linearGradient id="paint24_linear_412_124" x1="88.4114" y1="220.059" x2="17.9611" y2="108.459" gradientUnits="userSpaceOnUse">
<stop stop-color="#080A24"/>
<stop offset="1" stop-color="#662D91"/>
</linearGradient>
<linearGradient id="paint25_linear_412_124" x1="296.411" y1="219.059" x2="225.961" y2="107.459" gradientUnits="userSpaceOnUse">
<stop stop-color="#080A24"/>
<stop offset="1" stop-color="#662D91"/>
</linearGradient>
<linearGradient id="paint26_linear_412_124" x1="400.411" y1="219.059" x2="329.961" y2="107.459" gradientUnits="userSpaceOnUse">
<stop stop-color="#080A24"/>
<stop offset="1" stop-color="#662D91"/>
</linearGradient>
<linearGradient id="paint27_linear_412_124" x1="504.411" y1="219.059" x2="433.961" y2="107.459" gradientUnits="userSpaceOnUse">
<stop stop-color="#080A24"/>
<stop offset="1" stop-color="#662D91"/>
</linearGradient>
<linearGradient id="paint28_linear_412_124" x1="608.411" y1="219.059" x2="537.961" y2="107.459" gradientUnits="userSpaceOnUse">
<stop stop-color="#080A24"/>
<stop offset="1" stop-color="#662D91"/>
</linearGradient>
<linearGradient id="paint29_linear_412_124" x1="711.411" y1="219.059" x2="640.961" y2="107.459" gradientUnits="userSpaceOnUse">
<stop stop-color="#080A24"/>
<stop offset="1" stop-color="#662D91"/>
</linearGradient>
<linearGradient id="paint30_linear_412_124" x1="816.411" y1="219.059" x2="745.961" y2="107.459" gradientUnits="userSpaceOnUse">
<stop stop-color="#080A24"/>
<stop offset="1" stop-color="#662D91"/>
</linearGradient>
</defs>
</svg>
